<?xml version="1.0" encoding="utf-8"?>
<!-- Generator: Adobe Illustrator 24.2.3, SVG Export Plug-In . SVG Version: 6.00 Build 0)  -->
<svg version="1.1" id="Capa_1" xmlns="http://www.w3.org/2000/svg" xmlns:xlink="http://www.w3.org/1999/xlink" x="0px" y="0px"
	 viewBox="0 0 295.8 80.7" style="enable-background:new 0 0 295.8 80.7;" xml:space="preserve">
<style type="text/css">
	.st0{fill:#36454F;}
	.st1{fill:#FFFFFF;}
</style>
<g id="_x5F_RETICULA">
</g>
<g id="Capa_3">
</g>
<path class="st0" d="M61.2,28.7L42.8,50.6c-0.1,0.1-0.2,0.3-0.3,0.4l-2.1,2.3c-0.5,0.6-1.5,0.7-2.1,0.1L23.8,40.6
	c-1.7-1.5-1.8-4-0.4-5.7l0.1-0.1c1.5-1.7,4.2-1.9,5.9-0.4l9.2,8.2L55,23c0.3-0.3,0.6-0.6,0.9-0.8c-4.2-3.6-9.7-5.9-15.7-5.9
	C27,16.3,16.3,27,16.3,40.2S27,64.1,40.2,64.1s23.9-10.7,23.9-23.9C64.2,36.1,63.1,32.1,61.2,28.7z"/>
<g>
	<path class="st1" d="M111.8,32.4c2.4,1,3.6,2.3,3.6,3.8c0,0.6-0.3,1.6-0.9,3s-1.1,2.6-1.5,3.7l-6.1,15c-0.6,1.6-1.5,2.8-2.8,3.5
		c-0.6,0.3-1.3,0.4-2.1,0.4c-0.9,0-1.7-0.3-2.5-1s-1.3-1.3-1.6-2l-0.4-0.9c-0.3-0.7-1.4-3.6-3.3-8.7c-0.4,0.9-0.9,2.4-1.6,4.4
		s-1.2,3.3-1.4,3.8c-0.2,0.5-0.3,0.8-0.4,1s-0.2,0.5-0.5,0.9s-0.6,0.8-0.9,1.2c-0.9,0.9-1.9,1.3-3.1,1.3s-2.1-0.3-2.9-1
		s-1.3-1.3-1.6-2l-8.4-20.5c-0.4-1.1-0.6-1.8-0.6-2.2c0-1.5,1.1-2.7,3.2-3.5c1.2-0.5,2.2-0.7,2.9-0.7c0.7,0,1.3,0.2,1.8,0.5
		s0.8,0.6,1,0.9c0.2,0.3,0.3,0.6,0.4,1c0.6,1.5,2,5,4,10.5l3.3-9c0.2-0.7,0.6-1.4,1.2-2c1.1-1.1,2.2-1.6,3.3-1.6s2.1,0.3,2.9,0.9
		c0.8,0.6,1.3,1.2,1.6,1.8l0.4,0.9c1.9,5.2,3,8.2,3.3,8.9l3.4-9.3c0.9-2.4,2.2-3.6,4-3.6C110.3,31.8,111,32,111.8,32.4z"/>
	<path class="st1" d="M136.4,35.3c0.2-2.1,1.7-3.1,4.4-3.1c1.5,0,2.5,0.1,3.2,0.3s1.2,0.6,1.5,1.2c0.3,0.6,0.4,1.1,0.5,1.5
		s0.1,1.1,0.1,1.9v19.5c0,0.9,0,1.5-0.1,1.9s-0.2,0.9-0.5,1.5c-0.5,1-1.8,1.5-3.8,1.5s-3.4-0.3-4.1-0.8c-0.7-0.5-1.1-1.2-1.2-2.2
		c-1.4,2-3.7,3-6.9,3s-6.2-1.5-9-4.4s-4.1-6.4-4.1-10.2c0-3.9,1.4-7.3,4.2-10.2c2.8-2.9,5.8-4.4,9.1-4.4c1.3,0,2.4,0.2,3.5,0.7
		c1,0.4,1.8,0.9,2.2,1.3C135.8,34.5,136.1,34.9,136.4,35.3z M126.2,46.9c0,1.2,0.5,2.3,1.5,3.3s2.1,1.5,3.5,1.5s2.5-0.5,3.4-1.5
		s1.4-2.1,1.4-3.3s-0.4-2.3-1.3-3.4c-0.9-1-2-1.6-3.5-1.6s-2.7,0.5-3.6,1.6C126.7,44.5,126.2,45.6,126.2,46.9z"/>
	<path class="st1" d="M167.6,42l-3.6-0.2v7.7c0,1,0.2,1.7,0.5,2.2c0.3,0.4,0.9,0.7,1.8,0.7c0.9,0,1.5,0,2,0.1s1,0.2,1.5,0.5
		c0.9,0.5,1.3,1.7,1.3,3.7c0,2.3-0.5,3.8-1.6,4.3c-0.6,0.3-1.1,0.4-1.5,0.5s-1.1,0.1-1.9,0.1c-3.9,0-6.8-0.9-8.8-2.6
		c-2-1.7-3-4.7-3-8.9v-8.3c-0.7,0.1-1.5,0.2-2.3,0.2s-1.5-0.3-2-0.9c-0.5-0.6-0.8-1.7-0.8-3.2s0.1-2.6,0.3-3.3s0.4-1.2,0.8-1.5
		c0.6-0.5,1.3-0.7,2.2-0.7l1.8,0.2v-5.7c0-0.9,0-1.5,0.1-1.9s0.2-0.9,0.5-1.3c0.5-0.9,1.9-1.4,4.3-1.4c2.5,0,4,0.7,4.5,2.1
		c0.2,0.6,0.3,1.5,0.3,2.8v5.5c1.6-0.1,2.9-0.2,3.7-0.2s1.5,0,1.9,0.1s0.9,0.2,1.5,0.5c1,0.5,1.5,1.9,1.5,4.3c0,2.3-0.5,3.8-1.5,4.3
		c-0.6,0.3-1.1,0.4-1.5,0.5C169.1,42,168.5,42,167.6,42z"/>
	<path class="st1" d="M183.7,46.8c0,1.6,0.5,2.8,1.6,3.7c1,0.9,2.1,1.3,3.3,1.3s2.3-0.3,3.3-1s1.8-1,2.5-1c1.1,0,2.5,1,4.1,3
		c0.9,1.1,1.3,2,1.3,2.9c0,1.4-1,2.7-3.1,4c-2.1,1.5-4.7,2.2-7.8,2.2c-3.5,0-6.8-1.2-10-3.7c-1.5-1.2-2.8-2.8-3.7-4.8
		c-1-2-1.5-4.2-1.5-6.6s0.5-4.6,1.5-6.5c1-2,2.2-3.5,3.7-4.7c3.1-2.5,6.4-3.7,9.9-3.7c1.4,0,2.8,0.2,4.1,0.6c1.3,0.4,2.3,0.8,3,1.1
		l0.9,0.6c0.7,0.4,1.2,0.8,1.6,1.1c1,0.7,1.5,1.6,1.5,2.5s-0.4,2-1.2,3.2c-1.3,2-2.6,3.1-3.8,3.1c-0.7,0-1.7-0.4-3-1.2
		c-0.7-0.6-1.6-0.9-2.9-0.9c-1.2,0-2.4,0.4-3.5,1.3C184.2,44,183.7,45.3,183.7,46.8z"/>
	<path class="st1" d="M219.3,32.2c3.7,0,6.8,1.4,9.3,4.2s3.7,6.3,3.7,10.4v9.8c0,0.9,0,1.5-0.1,1.9s-0.2,0.9-0.5,1.5
		c-0.5,1-1.9,1.5-4.3,1.5c-2.3,0-3.7-0.5-4.2-1.5c-0.3-0.6-0.5-1.1-0.5-1.5c-0.1-0.4-0.1-1.1-0.1-2v-9.8c0-1.5-0.4-2.7-1.3-3.6
		c-0.9-0.9-1.9-1.3-3.3-1.3c-1.3,0-2.5,0.4-3.5,1.2s-1.6,1.7-1.7,2.7v10.8c0,0.9,0,1.5-0.1,1.9s-0.2,0.9-0.5,1.5
		c-0.5,1-1.9,1.5-4.3,1.5c-2.3,0-3.8-0.5-4.3-1.5c-0.3-0.6-0.4-1-0.5-1.5c-0.1-0.4-0.1-1.1-0.1-2V23.3c0-0.9,0-1.5,0.1-1.9
		s0.2-0.9,0.5-1.4c0.5-1,2-1.5,4.4-1.5c2.3,0,3.8,0.5,4.2,1.5c0.3,0.6,0.5,1.1,0.5,1.5c0.1,0.4,0.1,1.1,0.1,1.9v12.3
		C214.6,33.4,216.8,32.2,219.3,32.2z"/>
	<path class="st1" d="M245.9,26.7c-0.3,0.5-0.8,0.9-1.5,1.1s-1.6,0.3-2.8,0.3s-2.1-0.1-2.8-0.3c-0.7-0.2-1.2-0.6-1.5-1.2
		s-0.4-1.1-0.5-1.5s-0.1-1.1-0.1-1.9c0-0.9,0-1.5,0.1-1.9s0.2-0.9,0.5-1.4c0.5-1,2-1.5,4.4-1.5c2.3,0,3.8,0.5,4.2,1.5
		c0.3,0.6,0.5,1.1,0.5,1.5c0.1,0.4,0.1,1.1,0.1,1.9c0,0.9,0,1.5-0.1,1.9C246.4,25.7,246.2,26.2,245.9,26.7z M236.8,37
		c0-0.9,0-1.5,0.1-1.9s0.2-0.9,0.5-1.5c0.5-1,2-1.5,4.4-1.5c1.8,0,3,0.3,3.8,0.9c0.6,0.5,1,1.3,1,2.4c0,0.4,0.1,0.9,0.1,1.6v19.5
		c0,0.9,0,1.5-0.1,1.9s-0.2,0.9-0.5,1.5c-0.5,1-1.9,1.5-4.3,1.5c-2.3,0-3.8-0.5-4.3-1.5c-0.3-0.6-0.4-1-0.5-1.5
		c-0.1-0.4-0.1-1.1-0.1-2L236.8,37L236.8,37z"/>
	<path class="st1" d="M279.3,43.3c0,2.3-0.6,4-1.7,5.1s-2.4,1.6-3.8,1.6h-13.2c0,1,0.6,1.9,1.8,2.6c1.2,0.7,2.5,1.1,3.7,1.1
		c2.2,0,3.8-0.2,5.1-0.7l0.6-0.2c0.9-0.4,1.6-0.6,2.2-0.6c1.2,0,2.2,0.8,3.1,2.5c0.5,1,0.7,1.9,0.7,2.6c0,3.3-4,5-11.9,5
		c-2.8,0-5.2-0.5-7.3-1.4c-2.1-0.9-3.8-2.2-5-3.8c-2.3-3-3.5-6.4-3.5-10.1c0-4.7,1.5-8.4,4.5-11.2s6.8-4.2,11.4-4.2
		c5.2,0,9,1.8,11.4,5.5C278.7,38.9,279.3,41,279.3,43.3z M267.5,45c1.4,0,2.1-0.6,2.1-1.8c0-0.9-0.3-1.5-1-2.1
		c-0.7-0.5-1.6-0.8-2.8-0.8c-1.2,0-2.4,0.5-3.6,1.5s-1.8,2-1.8,3.2C260.4,45,267.5,45,267.5,45z"/>
</g>
</svg>
